<svg id="logo_white" data-name="logo white" xmlns="http://www.w3.org/2000/svg" width="117.082" height="142.642" viewBox="0 0 117.082 142.642">
  <path id="Path_179" data-name="Path 179" d="M310.918,480.094l.182-.357h9.363a3.448,3.448,0,0,1,.038.373c0,1.974.01,3.948,0,5.922-.012,2.425-.056,4.849-.056,7.274,0,1.388.03,2.778.1,4.165a53.948,53.948,0,0,0,.757,6.966,47.224,47.224,0,0,0,3.495,11.254,49.416,49.416,0,0,0,7.919,12.128,49.95,49.95,0,0,0,10.624,9.208,45.449,45.449,0,0,0,9.519,4.631,52.1,52.1,0,0,0,9.783,2.331,40.423,40.423,0,0,0,4.958.476c1.55.032,3.1.11,4.649.046a45.086,45.086,0,0,0,9.7-1.457,46.979,46.979,0,0,0,8.65-3.241,52.875,52.875,0,0,0,11.287-7.548q1.67-1.437,3.215-3.017a45.894,45.894,0,0,0,7.415-10.017,49.555,49.555,0,0,0,4.283-10.572,48.1,48.1,0,0,0,1.516-7.632,44.268,44.268,0,0,0,.282-4.828q.014-7.911,0-15.823v-.569c.378-.117,8.152-.164,9.368-.061.012.162.036.333.036.5q0,7.086,0,14.173c0,1.148.007,2.3-.045,3.444a64.328,64.328,0,0,1-.585,6.545,56.762,56.762,0,0,1-1.841,8.26,55.594,55.594,0,0,1-2.833,7.361,60.185,60.185,0,0,1-9.657,14.5c-1.035,1.133-2.084,2.257-3.185,3.326a55.384,55.384,0,0,1-6.956,5.713,56.65,56.65,0,0,1-8,4.64,61.848,61.848,0,0,1-17.844,5.333c-1.231.165-2.472.246-3.708.371-.393.04-.784.1-1.177.148H367.7a1.412,1.412,0,0,0-.27-.08c-1.269-.112-2.542-.186-3.807-.335a67.893,67.893,0,0,1-9.511-1.792,57.337,57.337,0,0,1-13.317-5.342,55.07,55.07,0,0,1-12.837-9.916,60.706,60.706,0,0,1-4.314-4.975,64.812,64.812,0,0,1-7.38-11.869,51.97,51.97,0,0,1-2.91-7.746,59.441,59.441,0,0,1-2.115-12.079c-.12-1.559-.149-3.124-.226-4.686a2.106,2.106,0,0,0-.1-.4Z" transform="translate(-310.918 -411.426)" fill="#fff"/>
  <path id="Path_180" data-name="Path 180" d="M406.928,454.975c0,2.378-.005,4.756,0,7.134.019,7.618.052,15.235.058,22.852,0,2.456-.054,4.912-.094,7.368-.018,1.146-.037,2.293-.1,3.437a40.232,40.232,0,0,1-1.727,9.93,33.7,33.7,0,0,1-7.059,12.413,37.824,37.824,0,0,1-5.137,4.781,45,45,0,0,1-7.232,4.585,33.371,33.371,0,0,1-10.069,3.19,39.022,39.022,0,0,1-4.239.4,38.5,38.5,0,0,1-9.3-.682,36.351,36.351,0,0,1-8.818-3.011,37.979,37.979,0,0,1-15.6-14.124,35.878,35.878,0,0,1-3.5-7.485,38.251,38.251,0,0,1-1.559-6.634,41.792,41.792,0,0,1-.389-6.03q.014-14.293,0-28.586c0-4.058-.05-8.116-.056-12.175q0-2.13.1-4.261a46.668,46.668,0,0,1,.85-7.339,36.873,36.873,0,0,1,2.521-7.814,33.875,33.875,0,0,1,5.266-8.209A37.758,37.758,0,0,1,347,419.045a44.146,44.146,0,0,1,6.72-4.131,34.359,34.359,0,0,1,10.52-3.192,39.535,39.535,0,0,1,7.013-.247,36.581,36.581,0,0,1,13.89,3.341,37.359,37.359,0,0,1,15.559,13.3,37.328,37.328,0,0,1,5.942,16.016,32.508,32.508,0,0,1,.255,3.956c-.008,2.3,0,4.593,0,6.89ZM399.086,471.5q0-11.115,0-22.23a31.529,31.529,0,0,0-.606-6.312,28.548,28.548,0,0,0-7.853-14.827A29.478,29.478,0,0,0,371.31,419.3a27.558,27.558,0,0,0-8.565.747,31.573,31.573,0,0,0-10.774,5.064,27.138,27.138,0,0,0-8.933,10.423,31.009,31.009,0,0,0-2.979,12.4c-.109,2.617-.111,5.24-.113,7.86,0,4.578.041,9.156.049,13.734q.014,8.856,0,17.714c0,1.877-.008,3.754,0,5.63a38.875,38.875,0,0,0,.2,4.407,28.228,28.228,0,0,0,2.778,9.288,29.369,29.369,0,0,0,14,13.864,28.67,28.67,0,0,0,10.834,2.738,29.527,29.527,0,0,0,7.146-.459,28.87,28.87,0,0,0,8.912-3.164A29.683,29.683,0,0,0,396.5,505.769a28.016,28.016,0,0,0,2.59-11.89Q399.072,482.691,399.086,471.5Z" transform="translate(-310.918 -411.426)" fill="#fff"/>
  <rect id="Rectangle_182" data-name="Rectangle 182" width="7.131" height="8.45" rx="3.565" transform="translate(0.945 52.066)" fill="#fff"/>
  <rect id="Rectangle_183" data-name="Rectangle 183" width="7.131" height="8.45" rx="3.565" transform="translate(108.727 52.066)" fill="#fff"/>
  <rect id="Rectangle_184" data-name="Rectangle 184" width="30.238" height="6.861" rx="3.431" transform="translate(43.422 32.378)" fill="#fff"/>
  <rect id="Rectangle_185" data-name="Rectangle 185" width="30.238" height="6.861" rx="3.431" transform="translate(43.422 52.608)" fill="#fff"/>
  <rect id="Rectangle_186" data-name="Rectangle 186" width="30.238" height="6.861" rx="3.431" transform="translate(43.422 72.838)" fill="#fff"/>
</svg>
